<svg width="20" height="20" viewBox="0 0 20 20" fill="none" xmlns="http://www.w3.org/2000/svg">
<g clip-path="url(#clip0_1361_7160)">
<path d="M12.9166 11.6667H12.2583L12.025 11.4417C13.025 10.275 13.5416 8.68333 13.2583 6.99167C12.8666 4.675 10.9333 2.825 8.59997 2.54167C5.07497 2.10833 2.10831 5.075 2.54164 8.6C2.82497 10.9333 4.67497 12.8667 6.99164 13.2583C8.68331 13.5417 10.275 13.025 11.4416 12.025L11.6666 12.2583V12.9167L15.2083 16.4583C15.55 16.8 16.1083 16.8 16.45 16.4583C16.7916 16.1167 16.7916 15.5583 16.45 15.2167L12.9166 11.6667ZM7.91664 11.6667C5.84164 11.6667 4.16664 9.99167 4.16664 7.91667C4.16664 5.84167 5.84164 4.16667 7.91664 4.16667C9.99164 4.16667 11.6666 5.84167 11.6666 7.91667C11.6666 9.99167 9.99164 11.6667 7.91664 11.6667Z" fill="#94A3B8"/>
</g>
<defs>
<clipPath id="clip0_1361_7160">
<rect width="20" height="20" fill="white"/>
</clipPath>
</defs>
</svg>
