<svg width="21" height="20" viewBox="0 0 21 20" fill="none" xmlns="http://www.w3.org/2000/svg">
<g clip-path="url(#clip0_1361_7100)">
<path d="M6.81665 3.40001L5.62498 2.20834C3.62498 3.73334 2.30832 6.08334 2.19165 8.75001H3.85832C3.98332 6.54168 5.11665 4.60834 6.81665 3.40001ZM17.1416 8.75001H18.8083C18.6833 6.08334 17.3667 3.73334 15.375 2.20834L14.1917 3.40001C15.875 4.60834 17.0166 6.54168 17.1416 8.75001ZM15.5 9.16668C15.5 6.60834 14.1333 4.46668 11.75 3.90001V3.33334C11.75 2.64168 11.1917 2.08334 10.5 2.08334C9.80832 2.08334 9.24998 2.64168 9.24998 3.33334V3.90001C6.85832 4.46668 5.49998 6.60001 5.49998 9.16668V13.3333L3.83332 15V15.8333H17.1666V15L15.5 13.3333V9.16668ZM10.5 18.3333C10.6167 18.3333 10.725 18.325 10.8333 18.3C11.375 18.1833 11.8167 17.8167 12.0333 17.3167C12.1167 17.1167 12.1583 16.9 12.1583 16.6667H8.82498C8.83332 17.5833 9.57498 18.3333 10.5 18.3333Z" fill="#475569"/>
</g>
<defs>
<clipPath id="clip0_1361_7100">
<rect width="20" height="20" fill="white" transform="translate(0.5)"/>
</clipPath>
</defs>
</svg>
