<svg width="27" height="27" viewBox="0 0 27 27" fill="none" xmlns="http://www.w3.org/2000/svg">
<rect width="27" height="27" rx="13.5" fill="#2563EB"/>
<path d="M8.6875 18.5548H18.3125C18.5073 18.5548 18.6707 18.6242 18.8027 18.7629C18.9347 18.9017 19.0005 19.0732 19 19.2774C18.9995 19.4817 18.9335 19.6534 18.802 19.7926C18.6705 19.9318 18.5073 20.001 18.3125 20H8.6875C8.49271 20 8.32954 19.9306 8.198 19.7919C8.06646 19.6532 8.00046 19.4817 8 19.2774C7.99954 19.0732 8.06554 18.9017 8.198 18.7629C8.33046 18.6242 8.49363 18.5548 8.6875 18.5548ZM12.125 17.1097C11.9302 17.1097 11.767 17.0403 11.6355 16.9016C11.504 16.7628 11.438 16.5913 11.4375 16.3871V12.0516H10.0969C9.81042 12.0516 9.60417 11.9162 9.47813 11.6455C9.35209 11.3748 9.375 11.1188 9.54688 10.8774L12.95 6.28903C13.0187 6.19269 13.1019 6.12043 13.1996 6.07226C13.2972 6.02409 13.3973 6 13.5 6C13.6027 6 13.703 6.02409 13.8011 6.07226C13.8992 6.12043 13.9822 6.19269 14.05 6.28903L17.4531 10.8774C17.625 11.1183 17.6479 11.3743 17.5219 11.6455C17.3958 11.9167 17.1896 12.0521 16.9031 12.0516H15.5625V16.3871C15.5625 16.5918 15.4965 16.7636 15.3645 16.9023C15.2325 17.041 15.0693 17.1102 14.875 17.1097H12.125Z" fill="white"/>
</svg>
