<svg width="27" height="27" viewBox="0 0 27 27" fill="none" xmlns="http://www.w3.org/2000/svg">
<circle cx="13.5" cy="13.5" r="13.5" fill="#2563EB"/>
<g clip-path="url(#clip0_1361_8126)">
<path d="M13.4999 3.08331C7.74992 3.08331 3.08325 7.74998 3.08325 13.5C3.08325 19.25 7.74992 23.9166 13.4999 23.9166C19.2499 23.9166 23.9166 19.25 23.9166 13.5C23.9166 7.74998 19.2499 3.08331 13.4999 3.08331ZM13.4999 21.8333C8.90617 21.8333 5.16659 18.0937 5.16659 13.5C5.16659 8.90623 8.90617 5.16665 13.4999 5.16665C18.0937 5.16665 21.8333 8.90623 21.8333 13.5C21.8333 18.0937 18.0937 21.8333 13.4999 21.8333ZM17.5416 9.6354L11.4166 15.7604L9.45825 13.8021C9.052 13.3958 8.39575 13.3958 7.9895 13.8021C7.58325 14.2083 7.58325 14.8646 7.9895 15.2708L10.6874 17.9687C11.0937 18.375 11.7499 18.375 12.1562 17.9687L19.0208 11.1041C19.427 10.6979 19.427 10.0416 19.0208 9.6354C18.6145 9.22915 17.9478 9.22915 17.5416 9.6354Z" fill="#EFF6FF"/>
</g>
<defs>
<clipPath id="clip0_1361_8126">
<rect width="25" height="25" fill="white" transform="translate(1 1)"/>
</clipPath>
</defs>
</svg>
