<svg width="52" height="52" viewBox="0 0 52 52" fill="none" xmlns="http://www.w3.org/2000/svg">
<rect x="0.5" y="0.5" width="51" height="51" rx="7.5" stroke="#60A5FA" stroke-dasharray="6 6"/>
<path fill-rule="evenodd" clip-rule="evenodd" d="M15.5999 5.19995C12.728 5.19995 10.3999 7.52807 10.3999 10.4V41.5999C10.3999 44.4718 12.728 46.7999 15.5999 46.7999H36.3999C39.2718 46.7999 41.5999 44.4718 41.5999 41.5999V19.2769C41.5999 17.8978 41.052 16.5751 40.0769 15.6L31.1999 6.723C30.2247 5.74781 28.9021 5.19995 27.5229 5.19995H15.5999ZM18.1999 26C16.764 26 15.5999 27.164 15.5999 28.6C15.5999 30.0359 16.764 31.2 18.1999 31.2H33.7999C35.2358 31.2 36.3999 30.0359 36.3999 28.6C36.3999 27.164 35.2358 26 33.7999 26H18.1999Z" fill="#3B82F6"/>
</svg>
