<svg width="27" height="27" viewBox="0 0 27 27" fill="none" xmlns="http://www.w3.org/2000/svg">
<rect width="27" height="27" rx="13.5" fill="#2563EB"/>
<path fill-rule="evenodd" clip-rule="evenodd" d="M7.19578 8.66029C6.0352 8.66029 5.09436 9.57262 5.09436 10.698V18.849C5.09436 19.9744 6.0352 20.8867 7.19578 20.8867H19.8043C20.9648 20.8867 21.9057 19.9744 21.9057 18.849V10.698C21.9057 9.57262 20.9648 8.66029 19.8043 8.66029H18.1381C17.8594 8.66029 17.5922 8.55295 17.3951 8.36188L16.2169 7.2194C15.8228 6.83725 15.2883 6.62256 14.731 6.62256H12.269C11.7117 6.62256 11.1772 6.83725 10.7831 7.2194L9.60494 8.36187C9.40789 8.55295 9.14064 8.66029 8.86197 8.66029H7.19578ZM13.5 17.8301C15.2409 17.8301 16.6521 16.4616 16.6521 14.7735C16.6521 13.0854 15.2409 11.7169 13.5 11.7169C11.7592 11.7169 10.3479 13.0854 10.3479 14.7735C10.3479 16.4616 11.7592 17.8301 13.5 17.8301Z" fill="#EFF6FF"/>
</svg>
