<svg width="24" height="24" viewBox="0 0 24 24" fill="none" xmlns="http://www.w3.org/2000/svg">
<path d="M4 14C3.45 14 2.97917 13.8042 2.5875 13.4125C2.19583 13.0208 2 12.55 2 12V3C2 2.45 2.19583 1.97917 2.5875 1.5875C2.97917 1.19583 3.45 1 4 1H20C20.55 1 21.0208 1.19583 21.4125 1.5875C21.8042 1.97917 22 2.45 22 3V12C22 12.55 21.8042 13.0208 21.4125 13.4125C21.0208 13.8042 20.55 14 20 14H16.775C16.875 13.6667 16.9417 13.3333 16.975 13C17.0083 12.6667 17.0083 12.3333 16.975 12H20V3H4V12H7.025C6.99167 12.3333 6.99167 12.6667 7.025 13C7.05833 13.3333 7.125 13.6667 7.225 14H4ZM6.725 7.275L7.275 8.5C7.325 8.6 7.4 8.65 7.5 8.65C7.6 8.65 7.675 8.6 7.725 8.5L8.275 7.275L9.5 6.725C9.6 6.675 9.65 6.6 9.65 6.5C9.65 6.4 9.6 6.325 9.5 6.275L8.275 5.725L7.725 4.5C7.675 4.4 7.6 4.35 7.5 4.35C7.4 4.35 7.325 4.4 7.275 4.5L6.725 5.725L5.5 6.275C5.4 6.325 5.35 6.4 5.35 6.5C5.35 6.6 5.4 6.675 5.5 6.725L6.725 7.275ZM16.5 7C16.9167 7 17.2708 6.85417 17.5625 6.5625C17.8542 6.27083 18 5.91667 18 5.5C18 5.08333 17.8542 4.72917 17.5625 4.4375C17.2708 4.14583 16.9167 4 16.5 4C16.0833 4 15.7292 4.14583 15.4375 4.4375C15.1458 4.72917 15 5.08333 15 5.5C15 5.91667 15.1458 6.27083 15.4375 6.5625C15.7292 6.85417 16.0833 7 16.5 7ZM6 23C5.71667 23 5.47917 22.9042 5.2875 22.7125C5.09583 22.5208 5 22.2833 5 22V20.9C5 20.3167 5.1625 19.775 5.4875 19.275C5.8125 18.775 6.24167 18.4 6.775 18.15C7.59167 17.7667 8.44167 17.4792 9.325 17.2875C10.2083 17.0958 11.1 17 12 17C12.9 17 13.7917 17.0958 14.675 17.2875C15.5583 17.4792 16.4083 17.7667 17.225 18.15C17.7583 18.4 18.1875 18.775 18.5125 19.275C18.8375 19.775 19 20.3167 19 20.9V22C19 22.2833 18.9042 22.5208 18.7125 22.7125C18.5208 22.9042 18.2833 23 18 23H6ZM7 21H17V20.9C17 20.7 16.9417 20.5167 16.825 20.35C16.7083 20.1833 16.5583 20.0583 16.375 19.975C15.675 19.6583 14.9583 19.4167 14.225 19.25C13.4917 19.0833 12.75 19 12 19C11.25 19 10.5083 19.0833 9.775 19.25C9.04167 19.4167 8.325 19.6583 7.625 19.975C7.44167 20.0583 7.29167 20.1833 7.175 20.35C7.05833 20.5167 7 20.7 7 20.9V21ZM12 16C11.0333 16 10.2083 15.6583 9.525 14.975C8.84167 14.2917 8.5 13.4667 8.5 12.5C8.5 11.5333 8.84167 10.7083 9.525 10.025C10.2083 9.34167 11.0333 9 12 9C12.9667 9 13.7917 9.34167 14.475 10.025C15.1583 10.7083 15.5 11.5333 15.5 12.5C15.5 13.4667 15.1583 14.2917 14.475 14.975C13.7917 15.6583 12.9667 16 12 16ZM12 14C12.4167 14 12.7708 13.8542 13.0625 13.5625C13.3542 13.2708 13.5 12.9167 13.5 12.5C13.5 12.0833 13.3542 11.7292 13.0625 11.4375C12.7708 11.1458 12.4167 11 12 11C11.5833 11 11.2292 11.1458 10.9375 11.4375C10.6458 11.7292 10.5 12.0833 10.5 12.5C10.5 12.9167 10.6458 13.2708 10.9375 13.5625C11.2292 13.8542 11.5833 14 12 14Z" fill="#94A3B8"/>
</svg>
