<svg width="40" height="39" viewBox="0 0 40 39" fill="none" xmlns="http://www.w3.org/2000/svg">
<path fill-rule="evenodd" clip-rule="evenodd" d="M20 36C28.8366 36 36 28.8366 36 20C36 11.1634 28.8366 4 20 4C11.1634 4 4 11.1634 4 20C4 28.8366 11.1634 36 20 36ZM19.1094 14.3359C18.4957 13.9268 17.7066 13.8886 17.0563 14.2367C16.406 14.5847 16 15.2624 16 16V24C16 24.7376 16.406 25.4153 17.0563 25.7634C17.7066 26.1114 18.4957 26.0732 19.1094 25.6641L25.1094 21.6641C25.6658 21.2932 26 20.6687 26 20C26 19.3313 25.6658 18.7068 25.1094 18.3359L19.1094 14.3359Z" fill="#3B82F6"/>
</svg>
