<svg width="12" height="16" viewBox="0 0 12 16" fill="none" xmlns="http://www.w3.org/2000/svg">
<path d="M1.33333 15.3141C0.966667 15.3141 0.652778 15.169 0.391667 14.8786C0.130556 14.5882 0 14.2392 0 13.8314V3.45235C0 3.0446 0.130556 2.69555 0.391667 2.40518C0.652778 2.11481 0.966667 1.96963 1.33333 1.96963H2V0.486908H3.33333V1.96963H8.66667V0.486908H10V1.96963H10.6667C11.0333 1.96963 11.3472 2.11481 11.6083 2.40518C11.8694 2.69555 12 3.0446 12 3.45235V13.8314C12 14.2392 11.8694 14.5882 11.6083 14.8786C11.3472 15.169 11.0333 15.3141 10.6667 15.3141H1.33333ZM1.33333 13.8314H10.6667V6.4178H1.33333V13.8314ZM1.33333 4.93508H10.6667V3.45235H1.33333V4.93508ZM6 9.38324C5.81111 9.38324 5.65278 9.3122 5.525 9.1701C5.39722 9.02801 5.33333 8.85193 5.33333 8.64188C5.33333 8.43183 5.39722 8.25576 5.525 8.11366C5.65278 7.97157 5.81111 7.90052 6 7.90052C6.18889 7.90052 6.34722 7.97157 6.475 8.11366C6.60278 8.25576 6.66667 8.43183 6.66667 8.64188C6.66667 8.85193 6.60278 9.02801 6.475 9.1701C6.34722 9.3122 6.18889 9.38324 6 9.38324ZM3.33333 9.38324C3.14444 9.38324 2.98611 9.3122 2.85833 9.1701C2.73056 9.02801 2.66667 8.85193 2.66667 8.64188C2.66667 8.43183 2.73056 8.25576 2.85833 8.11366C2.98611 7.97157 3.14444 7.90052 3.33333 7.90052C3.52222 7.90052 3.68056 7.97157 3.80833 8.11366C3.93611 8.25576 4 8.43183 4 8.64188C4 8.85193 3.93611 9.02801 3.80833 9.1701C3.68056 9.3122 3.52222 9.38324 3.33333 9.38324ZM8.66667 9.38324C8.47778 9.38324 8.31944 9.3122 8.19167 9.1701C8.06389 9.02801 8 8.85193 8 8.64188C8 8.43183 8.06389 8.25576 8.19167 8.11366C8.31944 7.97157 8.47778 7.90052 8.66667 7.90052C8.85556 7.90052 9.01389 7.97157 9.14167 8.11366C9.26945 8.25576 9.33333 8.43183 9.33333 8.64188C9.33333 8.85193 9.26945 9.02801 9.14167 9.1701C9.01389 9.3122 8.85556 9.38324 8.66667 9.38324ZM6 12.3487C5.81111 12.3487 5.65278 12.2776 5.525 12.1355C5.39722 11.9935 5.33333 11.8174 5.33333 11.6073C5.33333 11.3973 5.39722 11.2212 5.525 11.0791C5.65278 10.937 5.81111 10.866 6 10.866C6.18889 10.866 6.34722 10.937 6.475 11.0791C6.60278 11.2212 6.66667 11.3973 6.66667 11.6073C6.66667 11.8174 6.60278 11.9935 6.475 12.1355C6.34722 12.2776 6.18889 12.3487 6 12.3487ZM3.33333 12.3487C3.14444 12.3487 2.98611 12.2776 2.85833 12.1355C2.73056 11.9935 2.66667 11.8174 2.66667 11.6073C2.66667 11.3973 2.73056 11.2212 2.85833 11.0791C2.98611 10.937 3.14444 10.866 3.33333 10.866C3.52222 10.866 3.68056 10.937 3.80833 11.0791C3.93611 11.2212 4 11.3973 4 11.6073C4 11.8174 3.93611 11.9935 3.80833 12.1355C3.68056 12.2776 3.52222 12.3487 3.33333 12.3487ZM8.66667 12.3487C8.47778 12.3487 8.31944 12.2776 8.19167 12.1355C8.06389 11.9935 8 11.8174 8 11.6073C8 11.3973 8.06389 11.2212 8.19167 11.0791C8.31944 10.937 8.47778 10.866 8.66667 10.866C8.85556 10.866 9.01389 10.937 9.14167 11.0791C9.26945 11.2212 9.33333 11.3973 9.33333 11.6073C9.33333 11.8174 9.26945 11.9935 9.14167 12.1355C9.01389 12.2776 8.85556 12.3487 8.66667 12.3487Z" fill="#F8FAFC"/>
</svg>
