<svg width="32" height="32" viewBox="0 0 32 32" fill="none" xmlns="http://www.w3.org/2000/svg">
<mask id="mask0_1361_7143" style="mask-type:alpha" maskUnits="userSpaceOnUse" x="0" y="0" width="32" height="32">
<rect width="32" height="32" fill="#D9D9D9"/>
</mask>
<g mask="url(#mask0_1361_7143)">
<path d="M5.33329 18.6667C4.59996 18.6667 3.97218 18.4056 3.44996 17.8833C2.92774 17.3611 2.66663 16.7333 2.66663 16V4.00001C2.66663 3.26668 2.92774 2.6389 3.44996 2.11668C3.97218 1.59445 4.59996 1.33334 5.33329 1.33334H26.6666C27.4 1.33334 28.0277 1.59445 28.55 2.11668C29.0722 2.6389 29.3333 3.26668 29.3333 4.00001V16C29.3333 16.7333 29.0722 17.3611 28.55 17.8833C28.0277 18.4056 27.4 18.6667 26.6666 18.6667H22.3666C22.5 18.2222 22.5888 17.7778 22.6333 17.3333C22.6777 16.8889 22.6777 16.4445 22.6333 16H26.6666V4.00001H5.33329V16H9.36663C9.32218 16.4445 9.32218 16.8889 9.36663 17.3333C9.41107 17.7778 9.49996 18.2222 9.63329 18.6667H5.33329ZM8.96663 9.70001L9.69996 11.3333C9.76663 11.4667 9.86663 11.5333 9.99996 11.5333C10.1333 11.5333 10.2333 11.4667 10.3 11.3333L11.0333 9.70001L12.6666 8.96668C12.8 8.90001 12.8666 8.80001 12.8666 8.66668C12.8666 8.53334 12.8 8.43334 12.6666 8.36668L11.0333 7.63334L10.3 6.00001C10.2333 5.86668 10.1333 5.80001 9.99996 5.80001C9.86663 5.80001 9.76663 5.86668 9.69996 6.00001L8.96663 7.63334L7.33329 8.36668C7.19996 8.43334 7.13329 8.53334 7.13329 8.66668C7.13329 8.80001 7.19996 8.90001 7.33329 8.96668L8.96663 9.70001ZM22 9.33334C22.5555 9.33334 23.0277 9.1389 23.4166 8.75001C23.8055 8.36112 24 7.8889 24 7.33334C24 6.77779 23.8055 6.30557 23.4166 5.91668C23.0277 5.52779 22.5555 5.33334 22 5.33334C21.4444 5.33334 20.9722 5.52779 20.5833 5.91668C20.1944 6.30557 20 6.77779 20 7.33334C20 7.8889 20.1944 8.36112 20.5833 8.75001C20.9722 9.1389 21.4444 9.33334 22 9.33334ZM7.99996 30.6667C7.62218 30.6667 7.30551 30.5389 7.04996 30.2833C6.7944 30.0278 6.66663 29.7111 6.66663 29.3333V27.8667C6.66663 27.0889 6.88329 26.3667 7.31663 25.7C7.74996 25.0333 8.32218 24.5333 9.03329 24.2C10.1222 23.6889 11.2555 23.3056 12.4333 23.05C13.6111 22.7945 14.8 22.6667 16 22.6667C17.2 22.6667 18.3888 22.7945 19.5666 23.05C20.7444 23.3056 21.8777 23.6889 22.9666 24.2C23.6777 24.5333 24.25 25.0333 24.6833 25.7C25.1166 26.3667 25.3333 27.0889 25.3333 27.8667V29.3333C25.3333 29.7111 25.2055 30.0278 24.95 30.2833C24.6944 30.5389 24.3777 30.6667 24 30.6667H7.99996ZM9.33329 28H22.6666V27.8667C22.6666 27.6 22.5888 27.3556 22.4333 27.1333C22.2777 26.9111 22.0777 26.7445 21.8333 26.6333C20.9 26.2111 19.9444 25.8889 18.9666 25.6667C17.9888 25.4445 17 25.3333 16 25.3333C15 25.3333 14.0111 25.4445 13.0333 25.6667C12.0555 25.8889 11.1 26.2111 10.1666 26.6333C9.92218 26.7445 9.72218 26.9111 9.56663 27.1333C9.41107 27.3556 9.33329 27.6 9.33329 27.8667V28ZM16 21.3333C14.7111 21.3333 13.6111 20.8778 12.7 19.9667C11.7888 19.0556 11.3333 17.9556 11.3333 16.6667C11.3333 15.3778 11.7888 14.2778 12.7 13.3667C13.6111 12.4556 14.7111 12 16 12C17.2888 12 18.3888 12.4556 19.3 13.3667C20.2111 14.2778 20.6666 15.3778 20.6666 16.6667C20.6666 17.9556 20.2111 19.0556 19.3 19.9667C18.3888 20.8778 17.2888 21.3333 16 21.3333ZM16 18.6667C16.5555 18.6667 17.0277 18.4722 17.4166 18.0833C17.8055 17.6945 18 17.2222 18 16.6667C18 16.1111 17.8055 15.6389 17.4166 15.25C17.0277 14.8611 16.5555 14.6667 16 14.6667C15.4444 14.6667 14.9722 14.8611 14.5833 15.25C14.1944 15.6389 14 16.1111 14 16.6667C14 17.2222 14.1944 17.6945 14.5833 18.0833C14.9722 18.4722 15.4444 18.6667 16 18.6667Z" fill="#F8FAFC"/>
</g>
</svg>
