<svg width="40" height="40" viewBox="0 0 40 40" fill="none" xmlns="http://www.w3.org/2000/svg">
<rect width="40" height="40" fill="#1E1E1E"/>
<g clip-path="url(#clip0_1361_7091)">
<rect width="1440" height="1024" transform="translate(-986 -160)" fill="#DBEAFE"/>
<g filter="url(#filter0_f_1361_7091)">
<circle cx="414" cy="-80" r="111" fill="white"/>
</g>
<rect x="-22" y="-54" width="436" height="227" rx="16" fill="#EFF6FF"/>
<rect width="40" height="40" rx="4" fill="#DBEAFE"/>
<path d="M18.8951 10.0007C18.8094 9.99795 18.7224 10.0032 18.6339 10.0208L9.49108 11.8511C8.95623 11.9586 8.57144 12.4265 8.57144 12.9717V27.0967C8.57144 27.6418 8.95623 28.1098 9.49108 28.2172L18.6339 30.0476C19.3414 30.1893 20 29.6459 20 28.9248V11.1435C20 10.5125 19.4952 10.0198 18.8951 10.0007ZM22.2857 12.0342V14.3199H24.5714V16.6056H22.2857V18.8913H24.5714V21.177H22.2857V23.4627H24.5714V25.7484H22.2857V28.0342H30.2857C30.9166 28.0342 31.4286 27.5222 31.4286 26.8913V13.177C31.4286 12.5462 30.9166 12.0342 30.2857 12.0342H22.2857ZM26.8572 14.3199H29.1429V16.6056H26.8572V14.3199ZM12.5 15.802C12.8566 15.802 13.1798 16.0175 13.317 16.3467L14.1451 18.3333C14.2308 18.5401 14.2953 18.78 14.3616 19.052H14.3906C14.4284 18.8886 14.5051 18.6389 14.6205 18.3132L15.5804 16.2663C15.7129 15.9829 15.9971 15.802 16.3103 15.802C16.9183 15.802 17.308 16.4479 17.0246 16.9851L15.4375 19.9962L17.0447 23.0051C17.3464 23.5766 16.9348 24.2663 16.288 24.2663C15.9542 24.2663 15.6484 24.0725 15.5089 23.7685L14.4665 21.5051C14.4185 21.408 14.3616 21.2146 14.3147 20.9426H14.2969C14.2683 21.0729 14.2107 21.268 14.125 21.5297L13.0603 23.802C12.9277 24.0854 12.6413 24.2663 12.3281 24.2663H12.2299C11.6139 24.2663 11.224 23.6037 11.5223 23.0654L13.2121 20.0275L11.7121 17.0877C11.4126 16.4992 11.8394 15.802 12.5 15.802ZM26.8572 18.8913H29.1429V21.177H26.8572V18.8913ZM26.8572 23.4627H29.1429V25.7484H26.8572V23.4627Z" fill="#0D9488"/>
</g>
<defs>
<filter id="filter0_f_1361_7091" x="-12" y="-506" width="852" height="852" filterUnits="userSpaceOnUse" color-interpolation-filters="sRGB">
<feFlood flood-opacity="0" result="BackgroundImageFix"/>
<feBlend mode="normal" in="SourceGraphic" in2="BackgroundImageFix" result="shape"/>
<feGaussianBlur stdDeviation="157.5" result="effect1_foregroundBlur_1361_7091"/>
</filter>
<clipPath id="clip0_1361_7091">
<rect width="1440" height="1024" fill="white" transform="translate(-986 -160)"/>
</clipPath>
</defs>
</svg>
