<svg width="16" height="18" viewBox="0 0 16 18" fill="none" xmlns="http://www.w3.org/2000/svg">
<path fill-rule="evenodd" clip-rule="evenodd" d="M8 0.944458C5.91528 2.81033 3.17437 3.95809 0.166107 3.99891C0.0568637 4.64968 0 5.31821 0 6.00003C0 11.2249 3.33923 15.6698 8 17.3172C12.6608 15.6698 16 11.2249 16 6.00003C16 5.31821 15.9431 4.64968 15.8339 3.99891C12.8256 3.95809 10.0847 2.81033 8 0.944458ZM9 13C9 13.5523 8.55228 14 8 14C7.44772 14 7 13.5523 7 13C7 12.4477 7.44772 12 8 12C8.55228 12 9 12.4477 9 13ZM9 6C9 5.44772 8.55229 5 8 5C7.44772 5 7 5.44772 7 6V9C7 9.55228 7.44772 10 8 10C8.55229 10 9 9.55228 9 9V6Z" fill="#E11D48"/>
</svg>
