<svg width="32" height="32" viewBox="0 0 32 32" fill="none" xmlns="http://www.w3.org/2000/svg">
<rect width="32" height="32" fill="#1E1E1E"/>
<g clip-path="url(#clip0_1361_7091)">
<rect width="1440" height="1860" transform="translate(-1314 -1450)" fill="#DBEAFE"/>
<rect x="-993.5" y="-1343.5" width="1079" height="1635" rx="15.5" fill="#F8FAFC"/>
<rect x="-993.5" y="-1343.5" width="1079" height="1635" rx="15.5" stroke="#F8FAFC"/>
<rect x="-974.5" y="-28.5" width="1031" height="180" rx="15.5" fill="#EFF6FF"/>
<rect x="-974.5" y="-28.5" width="1031" height="180" rx="15.5" stroke="#BFDBFE"/>
<rect width="32" height="32" rx="4" fill="#CBD5E1"/>
<path fill-rule="evenodd" clip-rule="evenodd" d="M14.8571 6.85693C14.4243 6.85693 14.0285 7.10151 13.8349 7.48869L13.008 9.14265H9.14286C8.51167 9.14265 8 9.65432 8 10.2855C8 10.9167 8.51168 11.4284 9.14286 11.4284L9.14286 22.8569C9.14286 24.1193 10.1662 25.1426 11.4286 25.1426H20.5714C21.8338 25.1426 22.8571 24.1193 22.8571 22.8569V11.4284C23.4883 11.4284 24 10.9167 24 10.2855C24 9.65432 23.4883 9.14265 22.8571 9.14265H18.992L18.1651 7.48869C17.9715 7.10151 17.5757 6.85693 17.1429 6.85693H14.8571ZM12.5714 13.7141C12.5714 13.0829 13.0831 12.5712 13.7143 12.5712C14.3455 12.5712 14.8571 13.0829 14.8571 13.7141V20.5712C14.8571 21.2024 14.3455 21.7141 13.7143 21.7141C13.0831 21.7141 12.5714 21.2024 12.5714 20.5712V13.7141ZM18.2857 12.5712C17.6545 12.5712 17.1429 13.0829 17.1429 13.7141V20.5712C17.1429 21.2024 17.6545 21.7141 18.2857 21.7141C18.9169 21.7141 19.4286 21.2024 19.4286 20.5712V13.7141C19.4286 13.0829 18.9169 12.5712 18.2857 12.5712Z" fill="#FFF1F2"/>
</g>
<defs>
<clipPath id="clip0_1361_7091">
<rect width="1440" height="1860" fill="white" transform="translate(-1314 -1450)"/>
</clipPath>
</defs>
</svg>
