<svg width="52" height="44" viewBox="0 0 52 44" fill="none" xmlns="http://www.w3.org/2000/svg">
<path d="M17 11L20.5892 14.5892M35 29L31.4112 25.4112M27.8749 26.8246C27.2677 26.9398 26.6411 27 26.0005 27C21.5228 27 17.7325 24.0571 16.4583 20C16.8051 18.8955 17.3385 17.8736 18.0214 16.9712M23.8787 17.8787C24.4216 17.3358 25.1716 17 26 17C27.6569 17 29 18.3431 29 20C29 20.8284 28.6642 21.5784 28.1213 22.1213M23.8787 17.8787L28.1213 22.1213M23.8787 17.8787L20.5892 14.5892M28.1213 22.1213L20.5892 14.5892M28.1213 22.1213L31.4112 25.4112M20.5892 14.5892C22.149 13.5835 24.0066 13 26.0004 13C30.4781 13 34.2684 15.9429 35.5426 20C34.8357 22.2507 33.3545 24.1585 31.4112 25.4112" stroke="#94A3B8" stroke-width="2" stroke-linecap="round" stroke-linejoin="round"/>
</svg>
