<svg width="52" height="53" viewBox="0 0 52 53" fill="none" xmlns="http://www.w3.org/2000/svg">
<g clip-path="url(#clip0_2012_2927)">
<rect y="0.5" width="52" height="52" rx="8" fill="#EFF6FF"/>
<path d="M18.9584 25.4166H33.0417C35.1358 25.4166 36.8334 27.1142 36.8334 29.2083V37.875C36.8334 39.9691 35.1358 41.6666 33.0417 41.6666H18.9584C16.8643 41.6666 15.1667 39.9691 15.1667 37.875V29.2083C15.1667 27.1142 16.8643 25.4166 18.9584 25.4166ZM18.4167 29.2083V31.9166H21.6667V28.6666H18.9584C18.6593 28.6666 18.4167 28.9091 18.4167 29.2083ZM18.4167 35.1666V37.875C18.4167 38.1742 18.6593 38.4166 18.9584 38.4166H21.6667V35.1666H18.4167ZM24.9167 35.1666V38.4166H33.0417C33.341 38.4166 33.5834 38.1742 33.5834 37.875V35.1666H24.9167ZM33.5834 31.9166V29.2083C33.5834 28.9091 33.341 28.6666 33.0417 28.6666H24.9167V31.9166H33.5834ZM29.4342 6.10298C29.4017 6.07059 29.3651 6.04249 29.3287 6.01458C29.3016 5.99393 29.275 5.97341 29.2501 5.95131C29.0962 5.81265 28.9446 5.67615 28.7756 5.56131C28.7208 5.52435 28.661 5.49519 28.6012 5.46613C28.5665 5.44921 28.5318 5.43233 28.4982 5.41398C28.4621 5.39359 28.4261 5.37275 28.3899 5.35186C28.2725 5.28391 28.1546 5.21569 28.0302 5.16265C27.6034 4.98498 27.1441 4.89615 26.6782 4.86365C26.6356 4.86092 26.5933 4.85515 26.5508 4.84937C26.4921 4.84135 26.4332 4.83331 26.3727 4.83331H13.0001C10.6081 4.83331 8.66675 6.77465 8.66675 9.16665V43.8333C8.66675 46.2253 10.6081 48.1666 13.0001 48.1666H39.0001C41.3921 48.1666 43.3334 46.2253 43.3334 43.8333V21.794C43.3334 20.6456 42.8762 19.5428 42.0637 18.7303L29.4342 6.10298ZM39.0001 44.9166H13.0001C12.4021 44.9166 11.9167 44.4291 11.9167 43.8333V9.16665C11.9167 8.57081 12.4021 8.08331 13.0001 8.08331H26.0001V17.8333C26.0001 20.2253 27.9414 22.1666 30.3334 22.1666H40.0834V43.8333C40.0834 44.4291 39.5981 44.9166 39.0001 44.9166ZM37.6524 18.9166H30.3334C29.7354 18.9166 29.2501 18.4291 29.2501 17.8333V10.5121L37.6524 18.9166Z" fill="#60A5FA"/>
<circle cx="41.5" cy="43.5" r="7.5" fill="#F0FDFA"/>
<path d="M40.5256 48.2116V38.1548H43.0682V48.2116H40.5256ZM36.7685 44.4545V41.9119H46.8253V44.4545H36.7685Z" fill="#60A5FA"/>
</g>
<rect x="0.5" y="1" width="51" height="51" rx="7.5" stroke="#60A5FA" stroke-dasharray="6 6"/>
<defs>
<clipPath id="clip0_2012_2927">
<rect y="0.5" width="52" height="52" rx="8" fill="white"/>
</clipPath>
</defs>
</svg>
