<svg width="18" height="18" viewBox="0 0 18 18" fill="none" xmlns="http://www.w3.org/2000/svg">
<path d="M2 18C1.45 18 0.979167 17.8042 0.5875 17.4125C0.195833 17.0208 0 16.55 0 16V2C0 1.45 0.195833 0.979167 0.5875 0.5875C0.979167 0.195833 1.45 0 2 0H16C16.55 0 17.0208 0.195833 17.4125 0.5875C17.8042 0.979167 18 1.45 18 2V16C18 16.55 17.8042 17.0208 17.4125 17.4125C17.0208 17.8042 16.55 18 16 18H2ZM2 16H16V2H2V16ZM9 15C9.35 15 9.64583 14.8792 9.8875 14.6375C10.1292 14.3958 10.25 14.1 10.25 13.75C10.25 13.4 10.1292 13.1042 9.8875 12.8625C9.64583 12.6208 9.35 12.5 9 12.5C8.65 12.5 8.35417 12.6208 8.1125 12.8625C7.87083 13.1042 7.75 13.4 7.75 13.75C7.75 14.1 7.87083 14.3958 8.1125 14.6375C8.35417 14.8792 8.65 15 9 15ZM10 10.3C10.05 10.0333 10.1375 9.8 10.2625 9.6C10.3875 9.4 10.6333 9.11667 11 8.75C11.6167 8.13333 12.0333 7.63333 12.25 7.25C12.4667 6.86667 12.575 6.43333 12.575 5.95C12.575 5.1 12.2625 4.39583 11.6375 3.8375C11.0125 3.27917 10.225 3 9.275 3C8.55833 3 7.92083 3.14583 7.3625 3.4375C6.80417 3.72917 6.375 4.11667 6.075 4.6C5.925 4.83333 5.88333 5.07917 5.95 5.3375C6.01667 5.59583 6.16667 5.775 6.4 5.875C6.63333 5.975 6.8625 5.97917 7.0875 5.8875C7.3125 5.79583 7.49167 5.64167 7.625 5.425C7.79167 5.19167 8.01667 5.0125 8.3 4.8875C8.58333 4.7625 8.875 4.7 9.175 4.7C9.64167 4.7 10.0167 4.825 10.3 5.075C10.5833 5.325 10.725 5.64167 10.725 6.025C10.725 6.34167 10.6292 6.65833 10.4375 6.975C10.2458 7.29167 9.95 7.625 9.55 7.975C9.11667 8.35833 8.78333 8.75 8.55 9.15C8.31667 9.55 8.2 9.925 8.2 10.275C8.2 10.5083 8.2875 10.7083 8.4625 10.875C8.6375 11.0417 8.85 11.125 9.1 11.125C9.33333 11.125 9.52917 11.0458 9.6875 10.8875C9.84583 10.7292 9.95 10.5333 10 10.3Z" fill="#94A3B8"/>
</svg>
