<svg width="24" height="24" viewBox="0 0 24 24" fill="none" xmlns="http://www.w3.org/2000/svg">
<path fill-rule="evenodd" clip-rule="evenodd" d="M21.455 5.41595C21.55 5.56016 21.5924 5.73273 21.5749 5.90454C21.5574 6.07634 21.4811 6.23685 21.359 6.35895L12.166 15.551C12.072 15.6449 11.9546 15.7122 11.826 15.746L7.99702 16.746C7.87045 16.779 7.73744 16.7783 7.61121 16.744C7.48498 16.7097 7.3699 16.6431 7.27741 16.5506C7.18492 16.4581 7.11822 16.343 7.08395 16.2168C7.04967 16.0905 7.049 15.9575 7.08202 15.831L8.08202 12.003C8.11192 11.8883 8.16691 11.7817 8.24302 11.691L17.47 2.46995C17.6106 2.3295 17.8013 2.25061 18 2.25061C18.1988 2.25061 18.3894 2.3295 18.53 2.46995L21.359 5.29795C21.394 5.33479 21.4261 5.37424 21.455 5.41595ZM19.768 5.82795L18 4.06095L9.48202 12.579L8.85702 14.972L11.25 14.347L19.768 5.82795Z" fill="white"/>
<path d="M19.641 17.16C19.9143 14.8239 20.0016 12.4698 19.902 10.12C19.8997 10.0646 19.9089 10.0093 19.929 9.95766C19.9491 9.90602 19.9798 9.85912 20.019 9.81995L21.003 8.83596C21.0299 8.80891 21.064 8.79021 21.1013 8.7821C21.1385 8.77399 21.1774 8.7768 21.2131 8.79022C21.2488 8.80363 21.2798 8.82707 21.3025 8.85771C21.3252 8.88835 21.3386 8.9249 21.341 8.96295C21.5257 11.7542 21.4554 14.5565 21.131 17.335C20.895 19.357 19.271 20.942 17.258 21.167C13.7633 21.5537 10.2367 21.5537 6.74201 21.167C4.73001 20.942 3.10501 19.357 2.86901 17.335C2.45512 13.7903 2.45512 10.2096 2.86901 6.66495C3.10501 4.64295 4.72901 3.05795 6.74201 2.83295C9.39446 2.54 12.0667 2.46876 14.731 2.61995C14.7691 2.62269 14.8057 2.6363 14.8363 2.65917C14.867 2.68203 14.8904 2.7132 14.9039 2.74898C14.9173 2.78475 14.9203 2.82364 14.9123 2.86103C14.9044 2.89842 14.8859 2.93275 14.859 2.95995L13.866 3.95195C13.8272 3.9908 13.7808 4.02124 13.7297 4.04137C13.6786 4.06149 13.6239 4.07089 13.569 4.06895C11.3458 3.9928 9.11993 4.07803 6.90901 4.32395C6.26295 4.39546 5.65986 4.68268 5.19717 5.13921C4.73447 5.59573 4.43919 6.19491 4.35901 6.83995C3.95787 10.2683 3.95787 13.7316 4.35901 17.16C4.43919 17.805 4.73447 18.4042 5.19717 18.8607C5.65986 19.3172 6.26295 19.6044 6.90901 19.676C10.264 20.051 13.736 20.051 17.092 19.676C17.7381 19.6044 18.3412 19.3172 18.8039 18.8607C19.2666 18.4042 19.5608 17.805 19.641 17.16Z" fill="#EFF6FF"/>
</svg>
