<svg width="32" height="32" viewBox="0 0 32 32" fill="none" xmlns="http://www.w3.org/2000/svg">
<path d="M22.6666 26.6667H29.3333V24C29.3333 21.7909 27.5424 20 25.3333 20C24.0592 20 22.9241 20.5957 22.1916 21.5239M22.6666 26.6667H9.33329M22.6666 26.6667V24C22.6666 23.125 22.4981 22.2894 22.1916 21.5239M9.33329 26.6667H2.66663V24C2.66663 21.7909 4.45749 20 6.66663 20C7.94077 20 9.07577 20.5957 9.80829 21.5239M9.33329 26.6667V24C9.33329 23.125 9.50186 22.2894 9.80829 21.5239M9.80829 21.5239C10.7913 19.068 13.193 17.3333 16 17.3333C18.8069 17.3333 21.2086 19.068 22.1916 21.5239M20 9.33334C20 11.5425 18.2091 13.3333 16 13.3333C13.7908 13.3333 12 11.5425 12 9.33334C12 7.1242 13.7908 5.33334 16 5.33334C18.2091 5.33334 20 7.1242 20 9.33334ZM28 13.3333C28 14.8061 26.8061 16 25.3333 16C23.8605 16 22.6666 14.8061 22.6666 13.3333C22.6666 11.8606 23.8605 10.6667 25.3333 10.6667C26.8061 10.6667 28 11.8606 28 13.3333ZM9.33329 13.3333C9.33329 14.8061 8.13939 16 6.66663 16C5.19387 16 3.99996 14.8061 3.99996 13.3333C3.99996 11.8606 5.19387 10.6667 6.66663 10.6667C8.13939 10.6667 9.33329 11.8606 9.33329 13.3333Z" stroke="#F8FAFC" stroke-width="2" stroke-linecap="round" stroke-linejoin="round"/>
</svg>
