<svg width="24" height="24" viewBox="0 0 24 24" fill="none" xmlns="http://www.w3.org/2000/svg">
<path d="M16.477 3.004C16.644 3.019 16.717 3.223 16.597 3.342L8.277 11.662C8.18301 11.756 8.11571 11.8734 8.082 12.002L7.082 15.832C7.04899 15.9586 7.04965 16.0916 7.08393 16.2178C7.1182 16.344 7.1849 16.4591 7.27739 16.5516C7.36988 16.6441 7.48496 16.7108 7.61119 16.7451C7.73742 16.7793 7.87043 16.78 7.997 16.747L11.826 15.747C11.9547 15.713 12.0721 15.6454 12.166 15.551L20.604 7.113C20.6304 7.0859 20.664 7.06693 20.7009 7.05833C20.7377 7.04974 20.7762 7.05188 20.8119 7.06451C20.8476 7.07713 20.8789 7.09971 20.9021 7.12957C20.9253 7.15943 20.9395 7.19533 20.943 7.233C21.2942 10.5826 21.2741 13.9608 20.883 17.306C20.66 19.211 19.129 20.706 17.231 20.919C13.7546 21.3041 10.2464 21.3041 6.77 20.919C4.871 20.706 3.34 19.211 3.117 17.306C2.70498 13.781 2.70498 10.22 3.117 6.695C3.34 4.789 4.871 3.294 6.77 3.082C9.99451 2.72457 13.2472 2.69844 16.477 3.004Z" fill="#EFF6FF"/>
<path d="M17.823 4.23702C17.8462 4.21374 17.8738 4.19527 17.9042 4.18266C17.9346 4.17006 17.9671 4.16357 18 4.16357C18.0329 4.16357 18.0654 4.17006 18.0958 4.18266C18.1262 4.19527 18.1538 4.21374 18.177 4.23702L19.591 5.65202C19.6377 5.69888 19.6639 5.76235 19.6639 5.82852C19.6639 5.89469 19.6377 5.95816 19.591 6.00502L11.298 14.3C11.2665 14.3315 11.2271 14.3539 11.184 14.365L9.27 14.865C9.22781 14.876 9.18348 14.8758 9.1414 14.8644C9.09932 14.853 9.06096 14.8307 9.03013 14.7999C8.9993 14.7691 8.97707 14.7307 8.96565 14.6886C8.95422 14.6465 8.954 14.6022 8.965 14.56L9.465 12.646C9.47613 12.6029 9.49857 12.5636 9.53 12.532L17.823 4.23702Z" fill="#EFF6FF"/>
</svg>
