<svg width="40" height="40" viewBox="0 0 40 40" fill="none" xmlns="http://www.w3.org/2000/svg">
<rect width="40" height="40" fill="#1E1E1E"/>
<g clip-path="url(#clip0_1361_7091)">
<rect width="1440" height="1024" transform="translate(-701 -581)" fill="#DBEAFE"/>
<path d="M-381 -216C-381 -224.837 -373.837 -232 -365 -232H683C691.837 -232 699 -224.837 699 -216V443H-381V-216Z" fill="#F8FAFC"/>
<rect x="-15.5" y="-59.5" width="356" height="268" rx="7.5" fill="white"/>
<rect x="-15.5" y="-59.5" width="356" height="268" rx="7.5" stroke="#BFDBFE"/>
<rect width="40" height="40" rx="4" fill="#DBEAFE"/>
<path fill-rule="evenodd" clip-rule="evenodd" d="M10.7692 10.7692C10.7692 9.06985 12.1468 7.69226 13.8462 7.69226H20.9012C21.7173 7.69226 22.4999 8.01644 23.0769 8.59347L28.3296 13.8461C28.9066 14.4231 29.2308 15.2058 29.2308 16.0218V29.2307C29.2308 30.9301 27.8532 32.3076 26.1538 32.3076H13.8462C12.1468 32.3076 10.7692 30.9301 10.7692 29.2307V10.7692ZM13.8462 20C13.8462 19.1503 14.5349 18.4615 15.3846 18.4615H24.6154C25.4651 18.4615 26.1538 19.1503 26.1538 20C26.1538 20.8496 25.4651 21.5384 24.6154 21.5384H15.3846C14.5349 21.5384 13.8462 20.8496 13.8462 20ZM15.3846 24.6153C14.5349 24.6153 13.8462 25.3041 13.8462 26.1538C13.8462 27.0035 14.5349 27.6923 15.3846 27.6923H24.6154C25.4651 27.6923 26.1538 27.0035 26.1538 26.1538C26.1538 25.3041 25.4651 24.6153 24.6154 24.6153H15.3846Z" fill="#3B82F6"/>
</g>
<defs>
<clipPath id="clip0_1361_7091">
<rect width="1440" height="1024" fill="white" transform="translate(-701 -581)"/>
</clipPath>
</defs>
</svg>
