<svg width="40" height="40" viewBox="0 0 40 40" fill="none" xmlns="http://www.w3.org/2000/svg">
<path fill-rule="evenodd" clip-rule="evenodd" d="M36 20C36 28.8366 28.8366 36 20 36C11.1634 36 4 28.8366 4 20C4 11.1634 11.1634 4 20 4C28.8366 4 36 11.1634 36 20ZM14 16C14 14.8954 14.8954 14 16 14C17.1046 14 18 14.8954 18 16V24C18 25.1046 17.1046 26 16 26C14.8954 26 14 25.1046 14 24V16ZM24 14C22.8954 14 22 14.8954 22 16V24C22 25.1046 22.8954 26 24 26C25.1046 26 26 25.1046 26 24V16C26 14.8954 25.1046 14 24 14Z" fill="#3B82F6"/>
</svg>
