<svg width="14" height="15" viewBox="0 0 14 15" fill="none" xmlns="http://www.w3.org/2000/svg">
<path d="M7 14.3874C6.1784 14.3874 5.40884 14.2194 4.69132 13.8834C3.97379 13.5474 3.34937 13.0935 2.81808 12.5216C2.28678 11.9498 1.86502 11.2778 1.55282 10.5055C1.24061 9.73329 1.08451 8.90504 1.08451 8.02078C1.08451 7.13652 1.24061 6.30827 1.55282 5.53602C1.86502 4.76377 2.28678 4.09173 2.81808 3.51991C3.34937 2.94809 3.97379 2.49417 4.69132 2.15815C5.40884 1.82214 6.1784 1.65413 7 1.65413C7.8216 1.65413 8.59116 1.82214 9.30869 2.15815C10.0262 2.49417 10.6506 2.94809 11.1819 3.51991C11.7132 4.09173 12.135 4.76377 12.4472 5.53602C12.7594 6.30827 12.9155 7.13652 12.9155 8.02078C12.9155 8.90504 12.7594 9.73329 12.4472 10.5055C12.135 11.2778 11.7132 11.9498 11.1819 12.5216C10.6506 13.0935 10.0262 13.5474 9.30869 13.8834C8.59116 14.2194 7.8216 14.3874 7 14.3874ZM8.84038 10.9919L9.76056 10.0015L7.65728 7.73782V4.48375H6.34272V8.30374L8.84038 10.9919ZM2.79343 0.486908L3.71362 1.47728L0.920188 4.48375L0 3.49338L2.79343 0.486908ZM11.2066 0.486908L14 3.49338L13.0798 4.48375L10.2864 1.47728L11.2066 0.486908ZM7 12.9726C8.28169 12.9726 9.36894 12.4922 10.2617 11.5313C11.1545 10.5704 11.6009 9.40022 11.6009 8.02078C11.6009 6.64134 11.1545 5.47117 10.2617 4.51028C9.36894 3.54939 8.28169 3.06894 7 3.06894C5.71831 3.06894 4.63106 3.54939 3.73826 4.51028C2.84546 5.47117 2.39906 6.64134 2.39906 8.02078C2.39906 9.40022 2.84546 10.5704 3.73826 11.5313C4.63106 12.4922 5.71831 12.9726 7 12.9726Z" fill="#F8FAFC"/>
</svg>
