<svg width="47" height="49" viewBox="0 0 47 49" fill="none" xmlns="http://www.w3.org/2000/svg">
<mask id="mask0_2695_3598" style="mask-type:luminance" maskUnits="userSpaceOnUse" x="10" y="21" width="27" height="1">
<path d="M10.804 21.3625H36.2061V21.3849H10.804V21.3625Z" fill="white"/>
</mask>
<g mask="url(#mask0_2695_3598)">
<path d="M10.8763 9.81555V18.2357C18.3129 22.4658 28.9173 22.2335 36.1152 18.2357V9.81555L23.4958 18.9262L10.8763 9.81555Z" fill="#3B82F6"/>
</g>
<mask id="mask1_2695_3598" style="mask-type:luminance" maskUnits="userSpaceOnUse" x="3" y="21" width="41" height="28">
<path d="M3.40845 21.3849H43.5917V48.3155H3.40845V21.3849Z" fill="white"/>
</mask>
<g mask="url(#mask1_2695_3598)">
<path d="M33.5442 23.8528C37.7804 23.8528 41.1876 27.2865 41.1876 31.5558C41.1876 35.8251 37.7792 39.2589 33.5442 39.2589C29.3084 39.2589 25.9012 35.8239 25.9012 31.5558C25.9 27.2865 29.3084 23.8528 33.5442 23.8528ZM13.4476 23.8528C17.6838 23.8528 21.0918 27.2865 21.0918 31.5558C21.0918 35.8251 17.6838 39.2589 13.4476 39.2589C9.21181 39.2589 5.80333 35.8239 5.80333 31.5558C5.80459 27.2865 9.21181 23.8528 13.4476 23.8528ZM13.4476 21.4275C7.91222 21.4275 3.39844 25.9771 3.39844 31.5558C3.39844 37.135 7.91222 41.6842 13.4476 41.6842C14.5295 41.6842 15.5728 41.5105 16.55 41.1888L23.4959 48.3101L30.4418 41.1888C31.4203 41.5105 32.4623 41.6842 33.5442 41.6842C39.0808 41.6842 43.5938 37.135 43.5938 31.5558C43.5938 25.9759 39.0808 21.4275 33.5442 21.4275C28.0432 21.4275 23.552 25.9206 23.4959 31.4517C23.4398 25.9194 18.9486 21.4275 13.4476 21.4275Z" fill="#1D4ED8"/>
</g>
<path d="M18.8093 32.6247C18.283 32.8452 17.7191 32.9578 17.1484 32.959C14.7649 32.959 12.8029 30.9852 12.8029 28.5873C12.8029 27.7054 13.0692 26.8428 13.5654 26.1148C13.4544 26.1072 13.3443 26.1029 13.2333 26.1017C10.1401 26.1017 7.59457 28.6623 7.59457 31.774C7.59457 34.8861 10.1401 37.4467 13.2333 37.4467C16.0105 37.4488 18.3944 35.386 18.8093 32.6247Z" fill="#3B82F6"/>
<path d="M39.395 32.623C38.8687 32.8431 38.3048 32.9569 37.7341 32.9569C35.3506 32.9569 33.3886 30.9835 33.3886 28.5856C33.3886 27.7032 33.6549 26.8407 34.1511 26.1139C34.0401 26.1063 33.93 26.1017 33.819 26.1017C30.7258 26.1017 28.1803 28.6623 28.1803 31.7744C28.1803 34.8861 30.7258 37.4467 33.819 37.4467C36.5961 37.4467 38.9801 35.3844 39.395 32.623Z" fill="#3B82F6"/>
<path fill-rule="evenodd" clip-rule="evenodd" d="M37.9656 13.8426V17.6114L37.6604 17.6569C33.83 18.2279 30.1461 18.7771 26.781 20.7633C25.7123 21.4011 24.5809 22.139 23.4877 22.94C22.3938 22.139 21.2631 21.4011 20.1945 20.7633C16.8289 18.7772 13.1452 18.228 9.31559 17.657L9.00983 17.6114V13.886L23.5453 8.41379L37.9656 13.8426ZM23.3671 5.17533L6.41012 11.5591L0 8.81803L23.4877 0L47 8.81803L40.623 11.5375L23.5911 5.12549L23.5798 5.09525L23.5453 5.10826L23.4108 5.05764L23.3671 5.17533Z" fill="#172554"/>
</svg>
