<svg width="97" height="101" viewBox="0 0 97 101" fill="none" xmlns="http://www.w3.org/2000/svg">
<mask id="mask0_2698_3607" style="mask-type:luminance" maskUnits="userSpaceOnUse" x="22" y="44" width="53" height="1">
<path d="M22.2975 44.5054H74.7232V44.5519H22.2975V44.5054Z" fill="white"/>
</mask>
<g mask="url(#mask0_2698_3607)">
<path d="M22.447 20.4492V37.9911C37.7949 46.8038 59.6804 46.3199 74.5357 37.9911V20.4492L48.4914 39.4298L22.447 20.4492Z" fill="#3B82F6"/>
</g>
<mask id="mask1_2698_3607" style="mask-type:luminance" maskUnits="userSpaceOnUse" x="7" y="44" width="83" height="57">
<path d="M7.0343 44.5518H89.9656V100.657H7.0343V44.5518Z" fill="white"/>
</mask>
<g mask="url(#mask1_2698_3607)">
<path d="M69.2293 49.6934C77.9721 49.6934 85.004 56.847 85.004 65.7414C85.004 74.6357 77.9695 81.7893 69.2293 81.7893C60.4874 81.7893 53.4555 74.6331 53.4555 65.7414C53.4529 56.847 60.4874 49.6934 69.2293 49.6934ZM27.7533 49.6934C36.4961 49.6934 43.5297 56.847 43.5297 65.7414C43.5297 74.6357 36.4961 81.7893 27.7533 81.7893C19.0114 81.7893 11.9768 74.6331 11.9768 65.7414C11.9794 56.847 19.0114 49.6934 27.7533 49.6934ZM27.7533 44.6406C16.3292 44.6406 7.01355 54.119 7.01355 65.7414C7.01355 77.3645 16.3292 86.8421 27.7533 86.8421C29.9861 86.8421 32.1394 86.4802 34.1561 85.8101L48.4913 100.646L62.8264 85.8101C64.8458 86.4802 66.9965 86.8421 69.2293 86.8421C80.6559 86.8421 89.9699 77.3645 89.9699 65.7414C89.9699 54.1164 80.6559 44.6406 69.2293 44.6406C57.8761 44.6406 48.6071 54.0014 48.4913 65.5244C48.3755 53.9987 39.1065 44.6406 27.7533 44.6406Z" fill="#1D4ED8"/>
</g>
<path d="M38.8192 67.9681C37.7331 68.4274 36.5691 68.6619 35.3914 68.6646C30.4722 68.6646 26.4231 64.5524 26.4231 59.5568C26.4231 57.7194 26.9726 55.9224 27.9966 54.4056C27.7676 54.3898 27.5403 54.3811 27.3113 54.3784C20.9275 54.3784 15.6739 59.7131 15.6739 66.1957C15.6739 72.6792 20.9275 78.0139 27.3113 78.0139C33.0428 78.0183 37.9629 73.7208 38.8192 67.9681Z" fill="#3B82F6"/>
<path d="M81.3044 67.9646C80.2183 68.423 79.0544 68.6602 77.8766 68.6602C72.9574 68.6602 68.9083 64.5489 68.9083 59.5533C68.9083 57.715 69.4579 55.918 70.4818 54.4039C70.2528 54.3881 70.0256 54.3784 69.7966 54.3784C63.4127 54.3784 58.1591 59.7131 58.1591 66.1966C58.1591 72.6792 63.4127 78.0139 69.7966 78.0139C75.528 78.0139 80.4481 73.7173 81.3044 67.9646Z" fill="#3B82F6"/>
<path fill-rule="evenodd" clip-rule="evenodd" d="M78.3545 28.8388V36.6905L77.7248 36.7853C69.8195 37.9749 62.2164 39.119 55.2713 43.2569C53.0659 44.5856 50.7308 46.123 48.4746 47.7917C46.2171 46.123 43.8834 44.5856 41.6779 43.2569C34.7319 39.1192 27.1294 37.975 19.2258 36.7855H19.2258L18.5948 36.6905V28.9291L48.5935 17.5287L78.3545 28.8388ZM48.2258 10.7819L13.2294 24.0815L0 18.3709L48.4746 0L97 18.3709L83.8391 24.0365L48.6879 10.6781L48.6648 10.6151L48.5935 10.6422L48.316 10.5367L48.2258 10.7819Z" fill="#172554"/>
</svg>
